<svg xmlns="http://www.w3.org/2000/svg" xmlns:xlink="http://www.w3.org/1999/xlink" width="800" zoomAndPan="magnify" viewBox="0 0 600 599.999999" height="800" preserveAspectRatio="xMidYMid meet" version="1.0"><defs><clipPath id="a8568dc54f"><path d="M 48.117188 48.117188 L 551.882812 48.117188 L 551.882812 551.882812 L 48.117188 551.882812 Z M 48.117188 48.117188 " clip-rule="nonzero"/></clipPath><clipPath id="f895ae5268"><path d="M 300 48.117188 C 160.890625 48.117188 48.117188 160.890625 48.117188 300 C 48.117188 439.109375 160.890625 551.882812 300 551.882812 C 439.109375 551.882812 551.882812 439.109375 551.882812 300 C 551.882812 160.890625 439.109375 48.117188 300 48.117188 Z M 300 48.117188 " clip-rule="nonzero"/></clipPath><clipPath id="1f83cd9703"><path d="M 0.117188 0.117188 L 503.882812 0.117188 L 503.882812 503.882812 L 0.117188 503.882812 Z M 0.117188 0.117188 " clip-rule="nonzero"/></clipPath><clipPath id="05e9d26e48"><path d="M 252 0.117188 C 112.890625 0.117188 0.117188 112.890625 0.117188 252 C 0.117188 391.109375 112.890625 503.882812 252 503.882812 C 391.109375 503.882812 503.882812 391.109375 503.882812 252 C 503.882812 112.890625 391.109375 0.117188 252 0.117188 Z M 252 0.117188 " clip-rule="nonzero"/></clipPath><clipPath id="12fabc98f9"><rect x="0" width="504" y="0" height="504"/></clipPath><clipPath id="a2e3bbd0c7"><path d="M 178 271 L 424 271 L 424 469.851562 L 178 469.851562 Z M 178 271 " clip-rule="nonzero"/></clipPath><clipPath id="25615e8e45"><path d="M 202 130.101562 L 291 130.101562 L 291 256 L 202 256 Z M 202 130.101562 " clip-rule="nonzero"/></clipPath><clipPath id="a914f0e796"><path d="M 313 130.101562 L 401 130.101562 L 401 256 L 313 256 Z M 313 130.101562 " clip-rule="nonzero"/></clipPath><clipPath id="9cd1f8eb43"><path d="M 390 216 L 475.621094 216 L 475.621094 320 L 390 320 Z M 390 216 " clip-rule="nonzero"/></clipPath><clipPath id="5f35eb79d1"><path d="M 124.621094 216 L 211 216 L 211 320 L 124.621094 320 Z M 124.621094 216 " clip-rule="nonzero"/></clipPath></defs><g clip-path="url(#a8568dc54f)"><g clip-path="url(#f895ae5268)"><g transform="matrix(1, 0, 0, 1, 48, 48)"><g clip-path="url(#12fabc98f9)"><g clip-path="url(#1f83cd9703)"><g clip-path="url(#05e9d26e48)"><path fill="#ff751f" d="M 0.117188 0.117188 L 503.882812 0.117188 L 503.882812 503.882812 L 0.117188 503.882812 Z M 0.117188 0.117188 " fill-opacity="1" fill-rule="nonzero"/></g></g></g></g></g></g><g clip-path="url(#a2e3bbd0c7)"><path fill="#ffffff" d="M 348.222656 469.789062 C 343.367188 469.019531 336.242188 468.863281 329.757812 466.722656 C 309.683594 460.105469 290.246094 461.828125 269.996094 467.097656 C 225.875 478.613281 186.585938 450.707031 179.21875 406.390625 C 178.730469 403.726562 178.40625 401.046875 178.242188 398.34375 C 178.082031 395.640625 178.082031 392.941406 178.242188 390.238281 C 178.40625 387.539062 178.734375 384.855469 179.21875 382.191406 C 179.707031 379.53125 180.355469 376.90625 181.160156 374.324219 C 181.964844 371.738281 182.921875 369.214844 184.03125 366.746094 C 185.144531 364.277344 186.398438 361.882812 187.796875 359.566406 C 189.195312 357.25 190.730469 355.027344 192.398438 352.894531 C 194.066406 350.765625 195.859375 348.742188 197.773438 346.828125 C 203.882812 340.472656 210.675781 334.804688 216.742188 328.429688 C 221.171875 324.042969 225.027344 319.195312 228.304688 313.890625 C 257.710938 257.773438 345.222656 257.925781 375.132812 313.5625 C 379.265625 320.070312 384.195312 325.910156 389.914062 331.078125 C 400.636719 341.621094 411.976562 351.546875 417.863281 365.933594 C 434.828125 407.273438 413.894531 457.28125 365.714844 468.511719 C 360.664062 469.65625 355.414062 469.304688 348.222656 469.789062 Z M 348.222656 469.789062 " fill-opacity="1" fill-rule="nonzero"/></g><g clip-path="url(#25615e8e45)"><path fill="#ffffff" d="M 202.691406 180.429688 C 201.015625 147.230469 230.375 112.859375 264.878906 140.125 C 293.6875 162.539062 297.570312 208.511719 279.085938 238.734375 C 266.753906 258.234375 244.9375 260.792969 227.707031 245.351562 C 213.191406 232.445312 201.832031 210.210938 202.691406 180.429688 Z M 202.691406 180.429688 " fill-opacity="1" fill-rule="nonzero"/></g><g clip-path="url(#a914f0e796)"><path fill="#ffffff" d="M 313.191406 199.597656 C 312.75 176.015625 319.808594 157 336.242188 142.242188 C 359.097656 121.707031 381.929688 129.714844 394.0625 152.65625 C 410.429688 184.972656 396.070312 235.820312 362.140625 252.125 C 347.914062 258.742188 335.976562 255.476562 326.292969 243.167969 C 317.269531 231.71875 313.125 217.335938 313.191406 199.597656 Z M 313.191406 199.597656 " fill-opacity="1" fill-rule="nonzero"/></g><g clip-path="url(#9cd1f8eb43)"><path fill="#ffffff" d="M 390.554688 278.484375 C 388.964844 218.8125 471.40625 189.097656 475.375 248.574219 C 475.585938 252.957031 475.429688 257.324219 474.914062 261.683594 C 474.402344 266.039062 473.53125 270.324219 472.304688 274.535156 C 471.078125 278.75 469.515625 282.832031 467.613281 286.785156 C 465.710938 290.742188 463.496094 294.511719 460.96875 298.097656 C 459.171875 300.769531 457.128906 303.230469 454.835938 305.492188 C 452.542969 307.75 450.050781 309.757812 447.355469 311.515625 C 444.65625 313.269531 441.8125 314.742188 438.820312 315.925781 C 435.828125 317.109375 432.746094 317.984375 429.578125 318.546875 C 404.496094 323.773438 388.878906 302.3125 390.554688 278.484375 Z M 390.554688 278.484375 " fill-opacity="1" fill-rule="nonzero"/></g><g clip-path="url(#5f35eb79d1)"><path fill="#ffffff" d="M 210.65625 279.855469 C 210.992188 284.0625 210.664062 288.222656 209.671875 292.328125 C 208.679688 296.433594 207.074219 300.285156 204.851562 303.878906 C 189.917969 330.527344 158.21875 318.148438 142.601562 299.046875 C 127.289062 281.707031 121.113281 260.882812 126.585938 239 C 131.679688 218.503906 145.734375 212.527344 166.644531 217.929688 C 194.042969 225.101562 210.65625 249.101562 210.65625 279.855469 Z M 210.65625 279.855469 " fill-opacity="1" fill-rule="nonzero"/></g></svg>